<svg xmlns="http://www.w3.org/2000/svg" width="100" height="100" viewBox="0 0 100 100">
  <defs>
    <linearGradient id="qumagie-a" x1="4.119%" x2="102%" y1="0%" y2="101%">
      <stop offset="0%" stop-color="#CCE2ED" />
      <stop offset="51.506%" stop-color="#FFF" />
      <stop offset="100%" stop-color="#ADC0CE" />
    </linearGradient>
    <linearGradient id="qumagie-b" x1="100%" x2="-6.47%" y1="61.965%" y2="62.128%">
      <stop offset="0%" stop-color="#F86B8C" />
      <stop offset="36.53%" stop-color="#8259FF" />
      <stop offset="61.441%" stop-color="#3345FF" />
      <stop offset="89.961%" stop-color="#1FA3FF" />
      <stop offset="100%" stop-color="#2F96FF" />
    </linearGradient>
    <linearGradient id="qumagie-c" x1="-9.673%" x2="108.123%" y1="94.101%" y2="94.101%">
      <stop offset="0%" stop-color="#F86B8C" />
      <stop offset="21.27%" stop-color="#F86B8C" />
      <stop offset="37.053%" stop-color="#FAC739" />
      <stop offset="56.722%" stop-color="#A9E780" />
      <stop offset="79.482%" stop-color="#35ADFF" />
      <stop offset="100%" stop-color="#2E92FF" />
    </linearGradient>
    <linearGradient id="qumagie-d" x1="32.663%" x2="74.883%" y1="16.986%" y2="78.024%">
      <stop offset="0%" stop-color="#702AFF" />
      <stop offset="100%" stop-color="#AF0D87" />
    </linearGradient>
  </defs>
  <g fill="none">
    <rect width="100" height="100" fill="url(#qumagie-a)" rx="20" />
    <g transform="translate(10.294 13.235)">
      <path fill="url(#qumagie-b)"
        d="M14.2855427,64.4847032 C14.3895119,64.3010095 14.3895119,64.3010095 14.8595397,63.4710636 C15.3167163,62.6639496 15.8264311,61.7645145 16.3756783,60.7958632 C17.9448116,58.0285421 19.5161615,55.2613345 20.9855169,52.6793651 L21.0408305,52.5821703 C24.5261902,46.4580204 26.9273042,42.2746133 27.5063245,41.3300547 C27.7716535,40.8972224 28.6415466,39.3720924 28.6972958,39.2767137 C29.1215267,38.5509164 29.483439,37.9815003 29.8518824,37.4718694 C30.9829952,35.9073145 31.7800657,35.3688725 32.5432284,35.3688725 C33.3124986,35.3688725 34.0471227,35.7769768 34.9284017,36.7756624 C35.2921001,37.1878138 35.6338568,37.6566278 35.9658221,38.1833178 C36.1442846,38.4664631 36.7343284,39.4857402 36.8677331,39.6946961 C36.8917034,39.7322415 37.6859827,41.1380252 38.8425422,43.2054365 C38.7949765,43.1204104 42.0638557,48.9704279 43.09661,50.8134778 L43.1951977,50.9893995 C47.3930448,58.4793517 49.3459062,61.89171 50.1601817,63.0052632 C51.8310203,65.2901994 53.8478173,67.0638044 56.1366882,68.3659617 C57.6384804,69.2203434 59.1781636,69.8325975 60.8130892,70.2903078 C61.4128939,70.4582279 61.9994432,70.5985203 62.6341984,70.7323194 C62.860822,70.7800891 63.0799199,70.8242668 63.3468138,70.8766373 C63.6493737,70.9356699 63.7877989,70.9626602 63.8881814,70.9825865 C69.4248567,72.0816368 74.4348258,71.1789035 79.130214,66.7244624 C82.1814998,63.8297555 82.2968723,59.0217012 79.3879057,55.9853726 C76.4789391,52.949044 71.6471998,52.8342371 68.595914,55.728944 C67.9981852,56.2959999 67.9680028,56.3014384 66.8747303,56.0844198 C64.8419796,55.6809113 64.3630634,55.5468349 63.7138267,55.1774789 C63.2682977,54.9240138 62.884515,54.5865089 62.504524,54.0668565 C62.2749255,53.7528718 59.8278119,49.4768753 56.528298,43.5897618 L56.4303485,43.4149791 C55.4028892,41.5813786 52.1378605,35.738252 52.1815095,35.8162769 C50.5837563,32.9602084 50.0347986,31.988616 49.7536922,31.5483103 C49.8495578,31.6984675 49.2890592,30.7302286 48.8990326,30.1114196 C48.1612542,28.940874 47.3516171,27.8302324 46.3999212,26.7517487 C42.858285,22.7382852 38.2480613,20.177177 32.5432284,20.177177 C26.0298331,20.177177 21.1799591,23.4533931 17.4591453,28.6000222 C16.7630126,29.5629128 16.1525666,30.5233604 15.5006617,31.6386747 C15.3375326,31.9177648 14.5901069,33.2281802 14.4732395,33.4188265 C13.7603108,34.5818303 11.4008492,38.6926675 7.75667745,45.0958671 L7.70117035,45.1934019 C6.22746452,47.783016 4.65238551,50.5567907 3.07965713,53.330452 C2.52925268,54.3011444 2.01843335,55.2025285 1.56018514,56.0115344 C1.08879634,56.8438832 1.08879634,56.8438832 0.983688641,57.0295883 C-1.08512573,60.684788 0.215490323,65.3167971 3.8886959,67.3754702 C7.56190148,69.4341433 12.2167284,68.1399029 14.2855427,64.4847032 Z" />
      <path fill="url(#qumagie-c)"
        d="M34.1692303,35.9549213 C34.837137,37.0450874 37.2099106,41.1065486 41.8246141,49.0422425 L41.8423331,49.0727131 C49.014642,61.4066586 49.295799,61.8893139 49.793743,62.6987248 C53.6095669,68.9020514 59.3464638,71.4403238 65.5183144,71.4403238 L65.570678,71.4403238 C71.1523413,71.4403238 74.6841607,70.6677256 78.9482483,67.2212141 C82.3033278,64.5094218 82.8139859,59.6045829 80.088835,56.2659498 C77.363684,52.9273167 72.4346834,52.4191619 69.0796038,55.1309542 C68.2823786,55.7753232 67.875198,55.8644268 65.5714443,55.8643146 L65.5183144,55.8643128 C64.3562528,55.8643128 63.7871554,55.6125176 63.1438025,54.5666286 C62.7600549,53.9428447 62.0603899,52.7417472 55.3903171,41.2714778 L55.372583,41.2409812 C50.6069918,33.0458127 48.3014086,29.0993609 47.5340382,27.8468489 C47.3532874,27.551825 45.7430095,24.3745043 45.1779391,23.3555725 C43.9257005,21.0975429 42.6885806,19.2813431 41.1726351,17.7196749 C38.6777151,15.1495052 35.6309575,13.5297506 31.9594355,13.5297506 C28.1240581,13.5297506 24.970242,15.2738051 22.5067717,18.034888 C21.032318,19.6874709 19.9021264,21.5529837 18.7289893,23.9590498 C18.452487,24.5261469 17.0138234,27.6683725 16.7734466,28.1039038 C16.0110923,29.4851901 13.2155572,34.6758472 8.97735958,42.5698197 L8.95332989,42.6145771 C7.21832726,45.8461807 5.36105439,49.3083096 3.50480132,52.7703961 C2.85513066,53.982093 2.25198434,55.10725 1.71078082,56.1170328 C1.1541044,57.1557516 1.1541044,57.1557516 1.03027895,57.3868529 C-1.00332751,61.1822683 0.440057488,65.8995431 4.25416959,67.9231809 C8.06828169,69.9468187 12.8087942,68.5105091 14.8424007,64.7150936 C14.9658251,64.4847408 14.9658251,64.4847408 15.5220222,63.4469164 C16.0628482,62.4378379 16.6656056,61.3134065 17.3148687,60.1024697 C19.1698552,56.6427456 21.0258152,53.183064 22.7592873,49.9543111 L22.783292,49.9096002 C26.9661196,42.1187585 29.7760411,36.9013894 30.4931949,35.6020004 C30.8401849,34.9733 31.5972302,33.3708937 32.1524542,32.1798445 C32.8247308,33.4771414 33.7818941,35.3227061 34.1692303,35.9549213 Z"
        transform="matrix(-1 0 0 1 81.949 0)" />
      <ellipse cx="14.726" cy="9.909" fill="url(#qumagie-d)" rx="9.958" ry="9.909" />
      <path fill="#FFF" fill-opacity=".15"
        d="M10.4759922,18.8892347 C8.27977871,17.0885194 6.88030534,14.3658707 6.88030534,11.3190524 C6.88030534,5.89701139 11.3122787,1.50157872 16.779395,1.50157872 C18.5082673,1.50157872 20.1336233,1.94113138 21.548042,2.71370167 C23.4776346,4.51884005 24.6820295,7.07820698 24.6820295,9.91655614 C24.6820295,15.3841605 20.2128126,19.8165297 14.6997543,19.8165297 C13.1901205,19.8165297 11.7587563,19.484181 10.4759922,18.8892347 Z" />
    </g>
  </g>
</svg>