<svg id="SvgjsSvg1045" width="256" height="256" xmlns="http://www.w3.org/2000/svg" version="1.1"
  xmlns:xlink="http://www.w3.org/1999/xlink" xmlns:svgjs="http://svgjs.com/svgjs">
  <defs id="SvgjsDefs1046"></defs>
  <g id="SvgjsG1047"><svg xmlns="http://www.w3.org/2000/svg" viewBox="0 0 64 64" width="256" height="256">
      <defs>
        <linearGradient id="a" x1="6.86" x2="57.14" y1="32" y2="32" gradientUnits="userSpaceOnUse">
          <stop offset="0" stop-color="#2357ff" class="stopColor2357ff svgShape"></stop>
          <stop offset=".38" stop-color="#1b6ff6" class="stopColor1b6ff6 svgShape"></stop>
          <stop offset="1" stop-color="#0b9ee3" class="stopColor0b9ee3 svgShape"></stop>
        </linearGradient>
        <linearGradient id="b" x1="22.23" x2="41.77" y1="22.55" y2="22.55" gradientUnits="userSpaceOnUse">
          <stop offset="0" stop-color="#fdfbf7" class="stopColorfdfbf7 svgShape"></stop>
          <stop offset=".35" stop-color="#f5f0df" class="stopColorf5f0df svgShape"></stop>
          <stop offset="1" stop-color="#e3d7a9" class="stopColore3d7a9 svgShape"></stop>
        </linearGradient>
        <linearGradient id="c" x1="25.78" x2="38.22" y1="53.27" y2="53.27" gradientUnits="userSpaceOnUse">
          <stop offset="0" stop-color="#0e5df8" class="stopColor0e5df8 svgShape"></stop>
          <stop offset=".31" stop-color="#0f4ee0" class="stopColor0f4ee0 svgShape"></stop>
          <stop offset=".96" stop-color="#1026a3" class="stopColor1026a3 svgShape"></stop>
          <stop offset="1" stop-color="#10249f" class="stopColor10249f svgShape"></stop>
        </linearGradient>
      </defs>
      <g data-name="Layer 5" fill="#000000" class="color000 svgShape">
        <path fill="url(#a)"
          d="M49.53 4.5H14.47a7.61 7.61 0 0 0-7.61 7.61v35.06a7.61 7.61 0 0 0 7.61 7.6H26a6.22 6.22 0 0 0 10.4 2.91 6.18 6.18 0 0 0 1.6-2.91h11.53a7.61 7.61 0 0 0 7.61-7.6V12.11a7.61 7.61 0 0 0-7.61-7.61Z">
        </path>
        <path fill="url(#b)"
          d="m41.33 31.88-8.27 8.27a1.5 1.5 0 0 1-2.12 0l-8.27-8.27a1.5 1.5 0 1 1 2.12-2.12l5.71 5.71V4.5h3v31l5.71-5.71a1.5 1.5 0 1 1 2.12 2.12Z">
        </path>
        <path fill="url(#c)" d="M36.4 48.87a6.22 6.22 0 1 0 0 8.81 6.23 6.23 0 0 0 0-8.81Z"></path>
      </g>
    </svg></g>
</svg>