<svg class="SVGInline-svg Icon__StyledIconComponent-loi9hp-0-svg dAbISF-svg sc-gsTEea-svg"
  style="width: 40px;height: 40px;" xmlns="http://www.w3.org/2000/svg" viewBox="0 0 40 40">
  <defs>
    <linearGradient id="imagie_40-a" x1="100%" x2="-6.47%" y1="80.281%" y2="80.692%">
      <stop offset="0%" stop-color="#F86B8C"></stop>
      <stop offset="36.53%" stop-color="#8259FF"></stop>
      <stop offset="61.441%" stop-color="#3345FF"></stop>
      <stop offset="89.961%" stop-color="#1FA3FF"></stop>
      <stop offset="100%" stop-color="#2F96FF"></stop>
    </linearGradient>
    <linearGradient id="imagie_40-b" x1="-9.673%" x2="108.123%" y1="94.101%" y2="94.101%">
      <stop offset="0%" stop-color="#F86B8C"></stop>
      <stop offset="21.27%" stop-color="#F86B8C"></stop>
      <stop offset="37.053%" stop-color="#FAC739"></stop>
      <stop offset="56.722%" stop-color="#A9E780"></stop>
      <stop offset="79.482%" stop-color="#35ADFF"></stop>
      <stop offset="100%" stop-color="#2E92FF"></stop>
    </linearGradient>
    <linearGradient id="imagie_40-c" x1="32.663%" x2="74.883%" y1="16.66%" y2="78.301%">
      <stop offset="0%" stop-color="#702AFF"></stop>
      <stop offset="100%" stop-color="#AF0D87"></stop>
    </linearGradient>
  </defs>
  <g fill="none" fill-rule="evenodd">
    <rect width="40" height="40"></rect>
    <g transform="translate(3 2)">
      <path stroke="url(#imagie_40-a)" stroke-linecap="round" stroke-linejoin="round" stroke-width="7.261"
        d="M1.36601307,29.5203616 C1.36601307,29.5203616 6.98035871,19.4070271 7.73060396,18.1592301 C8.48084922,16.9114331 9.97462762,13.4941176 13.2365601,13.4941176 C16.4984927,13.4941176 18.0511847,16.8016533 18.367955,17.307517 C18.6847252,17.8133806 23.9842482,27.6194741 24.5735995,28.4411858 C25.9527798,30.3641281 27.7961438,30.6487475 28.8860759,30.8693313 C29.9760079,31.0899151 31.4254601,31.2019037 32.9281046,29.748509">
      </path>
      <path stroke="url(#imagie_40-b)" stroke-linecap="round" stroke-linejoin="round" stroke-width="7.444"
        d="M1.50980392,29.6631258 C1.50980392,29.6631258 8.13318845,17.0600073 8.99041928,15.4764628 C9.84765012,13.8929182 10.8718651,10.3576471 12.9583455,10.3576471 C15.0448259,10.3576471 16.3697492,14.1247006 17.1960469,15.4997523 C18.0223446,16.8748039 24.1305016,27.6460514 24.6385646,28.4880506 C25.9057209,30.5883063 27.7508339,30.9270572 28.9512977,30.9270572 C30.1517616,30.9270572 31.5295811,30.9356289 33,29.7239143"
        transform="matrix(-1 0 0 1 34.51 0)"></path>
      <ellipse cx="4.745" cy="4.814" fill="url(#imagie_40-c)" fill-rule="nonzero" rx="4.745" ry="4.814"></ellipse>
      <path fill="#FFF" fill-opacity=".15" fill-rule="nonzero"
        d="M2.72011073,9.17768342 C1.67347452,8.3027563 1.00653595,6.97988244 1.00653595,5.49950185 C1.00653595,2.86505384 3.11865472,0.729411765 5.72408527,0.729411765 C6.54800356,0.729411765 7.32258961,0.942980537 7.99665062,1.31835512 C8.91622487,2.19543129 9.49019608,3.43897025 9.49019608,4.81806041 C9.49019608,7.47464664 7.3603284,9.62823529 4.73300348,9.62823529 C4.01356644,9.62823529 3.33142983,9.46675454 2.72011073,9.17768342 Z">
      </path>
    </g>
  </g>
</svg>