<svg id="SvgjsSvg1323" width="256" height="256"
  xmlns="http://www.w3.org/2000/svg" version="1.1"
  xmlns:xlink="http://www.w3.org/1999/xlink"
  xmlns:svgjs="http://svgjs.com/svgjs">
  <defs id="SvgjsDefs1324"></defs>
  <g id="SvgjsG1325">
    <svg xmlns="http://www.w3.org/2000/svg" data-name="Layer 1" viewBox="0 0 120 120" width="256" height="256">
      <defs>
        <linearGradient id="a" x1="-704.843" x2="-704.843" y1="-592.356" y2="-594.355" gradientTransform="matrix(28.0073 0 0 -24.5176 19813.665 -14503.165)" gradientUnits="userSpaceOnUse">
          <stop offset="0" stop-color="#ff60ab" class="stopColorff60ab svgShape"></stop>
          <stop offset="1" stop-color="#ff281b" class="stopColorff281b svgShape"></stop>
        </linearGradient>
      </defs>
      <path fill="#ffffff" d="M26,0H94a25.94821,25.94821,0,0,1,26,26V94a25.94821,25.94821,0,0,1-26,26H26A25.94821,25.94821,0,0,1,0,94V26A25.94819,25.94819,0,0,1,26,0Z" class="colorfff svgShape"></path>
      <path fill="url(#a)" fill-rule="evenodd" d="M73,25s12.6-10.6,22.7-1c8.6,8.2,6,20.7-3.7,31.4C82,66.4,73,69,73,69s-9.1-2.6-19.1-13.6C44.1,44.7,41.5,32.2,50.2,24,60.4,14.4,73,25,73,25Z"></path>
    </svg>
  </g>
</svg>