<svg height="48pt" viewBox="0 0 48 48" width="48pt" xmlns="http://www.w3.org/2000/svg" xmlns:xlink="http://www.w3.org/1999/xlink"><linearGradient id="a" gradientTransform="matrix(46.808 0 0 47 .596 .5)" gradientUnits="userSpaceOnUse" x1="-.014458" x2="1.016457" y1=".009839" y2="1.072293"><stop offset="0" stop-color="#f9d423"/><stop offset=".51562375651" stop-color="#ff4e50"/><stop offset=".99130434783" stop-color="#8a2387"/></linearGradient><path d="m29.102 20.17c-.762-.8-.731-2.068.07-2.83.8-.762 2.068-.73 2.83.07.38.4.73.83 1.04 1.28 1.29 1.85 1.99 4.05 1.99 6.3 0 3.59-1.75 6.96-4.69 9.02-1.85 1.29-4.05 1.99-6.3 1.99-3.59 0-6.96-1.75-9.02-4.69-1.29-1.85-1.99-4.05-1.99-6.3 0-2.82 1.08-5.54 3.02-7.59.761-.8 2.029-.832 2.83-.07.8.762.831 2.03.07 2.83-1.23 1.3-1.92 3.03-1.92 4.83 0 1.43.44 2.83 1.26 4 1.32 1.87 3.46 2.99 5.75 2.99 1.43 0 2.83-.44 4-1.26 1.87-1.32 2.99-3.46 2.99-5.75 0-1.43-.44-2.83-1.27-4-.2-.29-.42-.57-.66-.82zm-5.07-8.17c1.104 0 2 .896 2 2v10c0 1.104-.896 2-2 2-1.104 0-2-.896-2-2v-10c0-1.104.896-2 2-2zm8.917-5.048c-1.045-.549-1.447-1.843-.898-2.887.549-1.045 1.843-1.448 2.887-.899 4.449 2.342 8.043 6.054 10.235 10.577.52 1.063.079 2.345-.984 2.861-1.062.517-2.346.074-2.866-.989-1.797-3.711-4.727-6.738-8.374-8.663zm-9.101-2.452c1.104-.006 1.996-.906 1.99-2.01-.005-1.104-.906-1.996-2.01-1.99-5.76.03-11.31 2.18-15.59 6.03-4.28 3.86-7 9.15-7.63 14.88-.121 1.098.672 2.089 1.77 2.21 1.099.121 2.089-.672 2.21-1.77.52-4.75 2.78-9.15 6.33-12.34 3.55-3.2 8.15-4.98 12.93-5.01zm-18.08 26.5c-.397-1.032-1.558-1.547-2.59-1.15-1.032.397-1.547 1.558-1.15 2.59 1.91 4.93 5.42 9.08 9.97 11.78.95.563 2.177.249 2.74-.7.563-.949.25-2.177-.7-2.74-3.78-2.24-6.69-5.68-8.27-9.78zm17.57 12.49c-1.104-.017-2.013.866-2.03 1.97-.016 1.104.866 2.013 1.97 2.03l.66.01h.03c5.91 0 11.61-2.23 15.95-6.24s7.02-9.52 7.48-15.41c.083-1.098-.741-2.062-1.84-2.15-1.098-.088-2.061.736-2.15 1.84-.38 4.88-2.6 9.45-6.2 12.78s-8.32 5.18-13.22 5.18z" fill="url(#a)" fill-rule="evenodd"/></svg>