<svg id="SvgjsSvg1013" width="256" height="256" xmlns="http://www.w3.org/2000/svg" version="1.1"
  xmlns:xlink="http://www.w3.org/1999/xlink" xmlns:svgjs="http://svgjs.com/svgjs">
  <defs id="SvgjsDefs1014"></defs>
  <g id="SvgjsG1015"><svg xmlns="http://www.w3.org/2000/svg" fill-rule="evenodd" stroke-linejoin="round"
      stroke-miterlimit="2" clip-rule="evenodd" viewBox="0 0 20 20" width="256" height="256">
      <path fill="url(#a)"
        d="m 18,17 c 0,-0.552 -0.448,-1 -1,-1 -0.552,0 -1,0.448 -1,1 0,0.552 0.448,1 1,1 0.552,0 1,-0.448 1,-1 z m -3,0 c 0,-1.104 0.896,-2 2,-2 0.552,0 1,-0.448 1,-1 0,0 0,-4.784 0,-8.042 C 18,3.772 16.228,2 14.042,2 H 5.958 C 3.772,2 2,3.772 2,5.958 v 8.084 C 2,16.228 3.772,18 5.958,18 9.216,18 14,18 14,18 c 0.552,0 1,-0.448 1,-1 z">
      </path>
      <path fill="#d857d9"
        d="m 7,16 h 4 c 0.552,0 1,-0.448 1,-1 0,-0.552 -0.448,-1 -1,-1 H 7 c -0.552,0 -1,0.448 -1,1 0,0.552 0.448,1 1,1 z M 8,9.586 7.707,9.293 c -0.39,-0.39 -1.024,-0.39 -1.414,0 -0.39,0.39 -0.39,1.024 0,1.414 l 2,2 c 0.39,0.391 1.024,0.391 1.414,0 l 2,-2 c 0.39,-0.39 0.39,-1.024 0,-1.414 -0.39,-0.39 -1.024,-0.39 -1.414,0 L 10,9.586 V 7 C 10,6.448 9.552,6 9,6 8.448,6 8,6.448 8,7 Z"
        class="colord857d9 svgShape"></path>
      <path fill="url(#b)"
        d="m 8.000002,15 h 3.999996 c 0.551999,0 0.999999,-0.448 0.999999,-1 0,-0.552 -0.448,-1 -0.999999,-1 H 8.000002 c -0.5519994,0 -0.999999,0.448 -0.999999,1 0,0.552 0.4479996,1 0.999999,1 z">
      </path>
      <path fill="url(#c)"
        d="M 9,8.586 8.707,8.293 c -0.39,-0.39 -1.024,-0.39 -1.414,0 -0.39,0.39 -0.39,1.024 0,1.414 l 2,2 c 0.39,0.391 1.024,0.391 1.414,0 l 2,-2 c 0.39,-0.39 0.39,-1.024 0,-1.414 -0.39,-0.39 -1.024,-0.39 -1.414,0 L 11,8.586 V 6 C 11,5.448 10.552,5 10,5 9.448,5 9,5.448 9,6 Z">
      </path>
      <defs>
        <linearGradient id="a" x1="0" x2="1" y1="0" y2="0" gradientTransform="matrix(14 -13 13 14 3 17)"
          gradientUnits="userSpaceOnUse">
          <stop offset="0" stop-color="#fe56ff" class="stopColorfe56ff svgShape"></stop>
          <stop offset="1" stop-color="#fe9fff" class="stopColorfe9fff svgShape"></stop>
        </linearGradient>
        <linearGradient id="b" x1="0" x2="1" y1="0" y2="0" gradientTransform="matrix(6 -2 2 6 7 15)"
          gradientUnits="userSpaceOnUse">
          <stop offset="0" stop-color="#fe9fff" class="stopColorfe9fff svgShape"></stop>
          <stop offset="1" stop-color="#ffffff" class="stopColorfff svgShape"></stop>
        </linearGradient>
        <linearGradient id="c" x1="0" x2="1" y1="0" y2="0" gradientTransform="matrix(3 -6 6 3 8 12)"
          gradientUnits="userSpaceOnUse">
          <stop offset="0" stop-color="#fe9fff" class="stopColorfe9fff svgShape"></stop>
          <stop offset="1" stop-color="#ffffff" class="stopColorfff svgShape"></stop>
        </linearGradient>
      </defs>
    </svg></g>
</svg>