<svg id="SvgjsSvg1001" width="256" height="256"
  xmlns="http://www.w3.org/2000/svg" version="1.1"
  xmlns:xlink="http://www.w3.org/1999/xlink"
  xmlns:svgjs="http://svgjs.com/svgjs">
  <defs id="SvgjsDefs1002"></defs>
  <g id="SvgjsG1008">
    <svg xmlns="http://www.w3.org/2000/svg" data-name="Layer 1" viewBox="0 0 24 24" width="256" height="256">
      <path fill="#6563ff" d="M5.939 16.5a1 1 0 0 1-.501-1.866l12.124-7a1 1 0 0 1 1 1.732l-12.124 7a.996.996 0 0 1-.499.134Z" class="color6563ff svgShape"></path>
      <path fill="#6563ff" d="M18.061 16.5a.997.997 0 0 1-.499-.134l-12.124-7a1 1 0 0 1 1-1.732l12.124 7a1 1 0 0 1-.501 1.866Z" class="color6563ff svgShape"></path>
      <path fill="#6563ff" d="M12 20a1 1 0 0 1-1-1V5a1 1 0 0 1 2 0v14a1 1 0 0 1-1 1Z" class="color6563ff svgShape"></path>
    </svg>
  </g>
</svg>