<svg xmlns="http://www.w3.org/2000/svg" data-name="Layer 1" viewBox="0 0 120 120" width="256" height="256">
  <defs>
    <linearGradient id="a" x1="63.94" x2="55.98" y1="-.21" y2="121.47" gradientUnits="userSpaceOnUse">
      <stop offset="0" stop-color="#1a1a1b" class="stopColor1a1a1b svgShape"></stop>
      <stop offset="1" stop-color="#1a1a1b" class="stopColor1a1a1b svgShape"></stop>
    </linearGradient>
  </defs>
  <rect width="120" height="120" fill="url(#a)" rx="26"></rect>
  <path fill="#2aaef5" d="M61 13h4v94h-4z" class="color2aaef5 svgShape"></path>
  <path fill="#fc3d39" d="M57.49 72.5A1.5 1.5 0 0 1 56 71V49a1.5 1.5 0 0 1 3 0v22a1.5 1.5 0 0 1-1.51 1.5zm-5 2A1.5 1.5 0 0 1 51 73V47a1.5 1.5 0 0 1 3 0v26a1.5 1.5 0 0 1-1.51 1.5zm-5 17A1.5 1.5 0 0 1 46 90V30a1.5 1.5 0 0 1 3 0v60a1.5 1.5 0 0 1-1.51 1.5zm-10 8A1.5 1.5 0 0 1 36 98V22a1.5 1.5 0 0 1 3 0v76a1.5 1.5 0 0 1-1.51 1.5zm5-11A1.5 1.5 0 0 1 41 87V33a1.5 1.5 0 0 1 3 0v54a1.5 1.5 0 0 1-1.51 1.5zm-10-6A1.5 1.5 0 0 1 31 81V39a1.5 1.5 0 0 1 3 0v42a1.5 1.5 0 0 1-1.51 1.5zm-5-7A1.5 1.5 0 0 1 26 74V46a1.5 1.5 0 0 1 3 0v28a1.5 1.5 0 0 1-1.51 1.5zm-5-10A1.5 1.5 0 0 1 21 64v-8a1.5 1.5 0 0 1 3 0v8a1.5 1.5 0 0 1-1.51 1.5zm-5-2A1.5 1.5 0 0 1 16 62v-4a1.5 1.5 0 0 1 3 0v4a1.5 1.5 0 0 1-1.51 1.5zm-5-1.5A1.5 1.5 0 0 1 11 60.5v-1a1.5 1.5 0 0 1 3 0v1a1.5 1.5 0 0 1-1.51 1.5zm-10 0A1.5 1.5 0 0 1 1 60.5v-1a1.5 1.5 0 0 1 3 0v1A1.5 1.5 0 0 1 2.49 62zm5 .5A1.5 1.5 0 0 1 6 61v-2a1.5 1.5 0 0 1 3 0v2a1.5 1.5 0 0 1-1.51 1.5z" class="colorfc3d39 svgShape"></path>
  <path fill="#fefefe" d="M87.49 64.5A1.5 1.5 0 0 1 86 63v-6a1.5 1.5 0 0 1 3 0v6a1.5 1.5 0 0 1-1.51 1.5zm-9 1A1.5 1.5 0 0 1 77 64v-8a1.5 1.5 0 0 1 3 0v8a1.5 1.5 0 0 1-1.51 1.5z" class="colorfefefe svgShape"></path>
  <path fill="#c7c7cc" d="M68.49 74.5A1.5 1.5 0 0 1 67 73V47a1.5 1.5 0 0 1 3 0v26a1.5 1.5 0 0 1-1.51 1.5Z" class="colorc7c7cc svgShape"></path>
  <path fill="#fefefe" d="M73.49 68.5A1.5 1.5 0 0 1 72 67V53a1.5 1.5 0 0 1 3 0v14a1.5 1.5 0 0 1-1.51 1.5zm19-6A1.5 1.5 0 0 1 91 61v-2a1.5 1.5 0 0 1 3 0v2a1.5 1.5 0 0 1-1.51 1.5zm-9 1A1.5 1.5 0 0 1 82 62v-4a1.5 1.5 0 0 1 3 0v4a1.5 1.5 0 0 1-1.51 1.5zm34-1.5a1.5 1.5 0 0 1-1.5-1.5v-1a1.5 1.5 0 0 1 3 0v1a1.5 1.5 0 0 1-1.5 1.5zm-10 0a1.5 1.5 0 0 1-1.5-1.5v-1a1.5 1.5 0 0 1 3 0v1a1.5 1.5 0 0 1-1.5 1.5zm-10 0A1.5 1.5 0 0 1 96 60.5v-1a1.5 1.5 0 0 1 3 0v1a1.5 1.5 0 0 1-1.51 1.5zm5 1.5A1.5 1.5 0 0 1 101 62v-4a1.5 1.5 0 0 1 3 0v4a1.5 1.5 0 0 1-1.51 1.5zm10-1A1.5 1.5 0 0 1 111 61v-2a1.5 1.5 0 0 1 3 0v2a1.5 1.5 0 0 1-1.51 1.5z" class="colorfefefe svgShape"></path>
  <circle cx="62.99" cy="106" r="5" fill="#2aaef5" class="color2aaef5 svgShape"></circle>
  <circle cx="62.99" cy="14" r="5" fill="#2aaef5" class="color2aaef5 svgShape"></circle>
</svg>