<svg id="SvgjsSvg1051" width="256" height="256"
  xmlns="http://www.w3.org/2000/svg" version="1.1"
  xmlns:xlink="http://www.w3.org/1999/xlink"
  xmlns:svgjs="http://svgjs.com/svgjs">
  <defs id="SvgjsDefs1052"></defs>
  <g id="SvgjsG1053">
    <svg xmlns="http://www.w3.org/2000/svg" viewBox="0 0 24 24" width="256" height="256">
      <path fill="#303c42" d="M20.417 6.155C19.902 3.242 16.783 1 13 1c-2.88 0-5.378 1.3-6.634 3.205C3.39 4.263 1 6.206 1 8.6v10.233C1 21.131 3.272 23 6.065 23h12.783C21.138 23 23 21.46 23 19.567V9.4c0-1.437-1.06-2.668-2.583-3.245z" class="color303C42 svgShape"></path>
      <path fill="#303c42" d="M18.5 13h-12C3.462 13 1 11.03 1 8.6v10.233C1 21.131 3.272 23 6.065 23h12.783C21.138 23 23 21.46 23 19.567V9.4c0 1.988-2.015 3.6-4.5 3.6z" class="color303C42 svgShape"></path>
      <path d="M18.848 22.75H6.065C3.272 22.75 1 20.88 1 18.583v.25C1 21.131 3.272 23 6.065 23h12.783C21.138 23 23 21.46 23 19.567v-.25c0 1.893-1.863 3.433-4.152 3.433z" opacity=".1" fill="#000000" class="color000 svgShape"></path>
      <path fill="#ffffff" d="M19.174 18H5.783C3.14 18 1 16.358 1 14.333v.25c0 2.025 2.141 3.667 4.783 3.667h13.39c2.114 0 3.827-1.313 3.827-2.933v-.25C23 16.687 21.287 18 19.174 18z" opacity=".1" class="colorFFF svgShape"></path>
      <path fill="#303c42" d="M20.417 6.155C19.902 3.242 16.783 1 13 1c-2.88 0-5.378 1.3-6.634 3.205C3.39 4.263 1 6.206 1 8.6 1 11.03 3.462 13 6.5 13h12c2.485 0 4.5-1.612 4.5-3.6 0-1.437-1.06-2.668-2.583-3.245z" class="color303C42 svgShape"></path>
      <path fill="#ffffff" d="M20.415 6.154C19.9 3.242 16.782 1 13 1c-2.878 0-5.368 1.302-6.625 3.205C3.395 4.26 1 6.204 1 8.6c0 .05.007.1.01.15.1-2.415 2.572-4.35 5.615-4.35 1.746 0 3.306.637 4.338 1.635-.996-1.107-2.614-1.83-4.448-1.834C7.811 2.409 10.225 1.2 13 1.2c3.684 0 6.732 2.13 7.363 4.931A5.416 5.416 0 0 0 18.5 5.8c-1.586 0-2.974.66-3.776 1.652C15.57 6.575 16.883 6 18.375 6c2.49 0 4.506 1.578 4.606 3.55.003-.05.019-.099.019-.15 0-1.438-1.061-2.67-2.585-3.246z" opacity=".1" class="colorFFF svgShape"></path>
      <path d="M19.174 17.75H5.783C3.14 17.75 1 16.108 1 14.083v.25C1 16.358 3.141 18 5.783 18h13.39C21.288 18 23 16.687 23 15.067v-.25c0 1.62-1.713 2.933-3.826 2.933z" opacity=".1" fill="#000000" class="color000 svgShape"></path>
      <path fill="#ffffff" d="M18.5 13h-12C3.462 13 1 11.03 1 8.6v.25c0 2.43 2.462 4.4 5.5 4.4h12c2.485 0 4.5-1.612 4.5-3.6V9.4c0 1.988-2.015 3.6-4.5 3.6z" opacity=".1" class="colorFFF svgShape"></path>
      <circle cx="5" cy="15" r="1" fill="#c6cdd1" class="colorC6CDD1 svgShape"></circle>
      <linearGradient id="a" x1="4.368" x2="5.487" y1="14.368" y2="15.487" gradientUnits="userSpaceOnUse">
        <stop offset="0" stop-opacity=".1" stop-color="#000000" class="stopColor000000 svgShape"></stop>
        <stop offset="1" stop-opacity="0" stop-color="#000000" class="stopColor000000 svgShape"></stop>
      </linearGradient>
      <circle cx="5" cy="15" r="1" fill="url(#a)"></circle>
      <circle cx="5" cy="20" r="1" fill="#c6cdd1" class="colorC6CDD1 svgShape"></circle>
      <linearGradient id="b" x1="4.368" x2="5.487" y1="19.368" y2="20.487" gradientUnits="userSpaceOnUse">
        <stop offset="0" stop-opacity=".1" stop-color="#000000" class="stopColor000000 svgShape"></stop>
        <stop offset="1" stop-opacity="0" stop-color="#000000" class="stopColor000000 svgShape"></stop>
      </linearGradient>
      <circle cx="5" cy="20" r="1" fill="url(#b)"></circle>
      <circle cx="19.5" cy="15.5" r=".5" fill="#69b342" class="color69B342 svgShape"></circle>
      <circle cx="17.5" cy="15.5" r=".5" fill="#69b342" class="color69B342 svgShape"></circle>
      <circle cx="15.5" cy="15.5" r=".5" fill="#69b342" class="color69B342 svgShape"></circle>
      <circle cx="19.5" cy="20.5" r=".5" fill="#69b342" class="color69B342 svgShape"></circle>
      <circle cx="17.5" cy="20.5" r=".5" fill="#69b342" class="color69B342 svgShape"></circle>
      <circle cx="15.5" cy="20.5" r=".5" fill="#69b342" class="color69B342 svgShape"></circle>
      <linearGradient id="c" x1="2.919" x2="21.851" y1="3.689" y2="12.517" gradientUnits="userSpaceOnUse">
        <stop offset="0" stop-color="#ffffff" stop-opacity=".2" class="stopColorFFF svgShape"></stop>
        <stop offset="1" stop-color="#ffffff" stop-opacity="0" class="stopColorFFF svgShape"></stop>
      </linearGradient>
      <path fill="url(#c)" d="M20.417 6.155C19.902 3.242 16.783 1 13 1c-2.88 0-5.378 1.3-6.634 3.205C3.39 4.263 1 6.206 1 8.6 1 11.03 3.462 13 6.5 13h12c2.485 0 4.5-1.612 4.5-3.6 0-1.437-1.06-2.668-2.583-3.245z"></path>
      <linearGradient id="d" x1=".978" x2="23.799" y1="7.85" y2="18.492" gradientUnits="userSpaceOnUse">
        <stop offset="0" stop-color="#ffffff" stop-opacity=".2" class="stopColorFFF svgShape"></stop>
        <stop offset="1" stop-color="#ffffff" stop-opacity="0" class="stopColorFFF svgShape"></stop>
      </linearGradient>
      <path fill="url(#d)" d="M20.417 6.155C19.902 3.242 16.783 1 13 1c-2.88 0-5.378 1.3-6.634 3.205C3.39 4.263 1 6.206 1 8.6v10.233C1 21.131 3.272 23 6.065 23h12.783C21.138 23 23 21.46 23 19.567V9.4c0-1.437-1.06-2.668-2.583-3.245z"></path>
    </svg>
  </g>
</svg>